<svg width="127" height="131" xmlns="http://www.w3.org/2000/svg"><g fill="none" fill-rule="evenodd"><path d="M89.766 104.66c.352 1.097 1.483 1.864 2.784 1.864h19.24s3.04.05 3.04-4.6v-19.97a2.48 2.48 0 00-.537-1.546c-.727-.917-2.153-2.101-4.012-.683-2.751 2.1-5.741 11.55-7.591 12.15-1.741.564-15.97 3.299-12.924 12.786" fill="#3370FF"/><path fill="#14C0FF" d="M90.605 130.907H33.112l29.718-16.512z"/><path d="M104.903 100.827H20.475c-1.098 0-2-.9-2-2V34.099c0-1.1.902-2 2-2h84.427c1.1 0 2 .9 2 2v64.728c0 1.1-.9 2-2 2zm-42.213 30.08v-30.08" stroke="#2B2F36"/><path d="M81.966 35.97h-39.53c-1.1 0-2-.9-2-2v-3.3c0-1.1.9-2 2-2h39.53c1.1 0 2 .9 2 2v3.3c0 1.1-.9 2-2 2" fill="#2B2F36"/><path d="M59.114 20.728h6.175c1.099 0 2 .9 2 2v9.03c0 1.1-.901 2-2 2h-6.175c-1.1 0-2-.9-2-2v-9.03c0-1.1.9-2 2-2" fill="#2B2F36"/><path stroke="#2B2F36" stroke-linecap="round" stroke-linejoin="round" d="M9.177 61.418L.555 59.35m9.621-3.314l-7.918-3.991m6.974 15.124L.501 68.712"/><path d="M16.805 71.298c0 12.78 10.36 23.142 23.14 23.142 12.782 0 23.142-10.362 23.142-23.142s-10.36-23.142-23.141-23.142c-12.781 0-23.141 10.362-23.141 23.142" fill="#FFC60A"/><path d="M29.618 69.104c0 4.172 4.71 7.554 10.521 7.554 5.81 0 10.521-3.382 10.521-7.554m-10.521 7.554v3.696m9.847-8.241l2.613 2.613m-6.785.766l1.877 3.185m-13.386-3.185l-1.878 3.185m-2.521-7.102l-2.613 2.613" stroke="#2B2F36" stroke-linecap="round" stroke-linejoin="round"/><path fill="#2B2F36" d="M3.136 105.7l3.529 3.53L26.12 89.774l-3.53-3.53z"/><path fill="#14C0FF" d="M81.001 9.726l19.444-.465-3.792 14.001z"/><path d="M81.284 65.94c32.256 1.834 43.827-12.401 44.263-18.71.621-9.014-15.647-9.282-15.36-5.811.428 5.182 16.015-2.272 13.211-15.575-1.825-8.661-11.66-9.976-11.66-9.976M82.161 6.601l23.928-6.1L101 19.292zm21.933 1.264L82.161 6.601" stroke="#2B2F36" stroke-linecap="round" stroke-linejoin="round"/><path d="M102.53 13.73l4.225-.487a.935.935 0 00.697-1.406l-2.925-4.924-1.998 6.817z" fill="#2B2F36"/></g></svg>